<svg id="Layer_1" data-name="Layer 1" xmlns="http://www.w3.org/2000/svg" xmlns:xlink="http://www.w3.org/1999/xlink" viewBox="0 0 429.22 430"><defs><style>.cls-1,.cls-22{fill:#213e3b;}.cls-2{fill:#e8ffff;}.cls-3{fill:#0278ae;}.cls-10,.cls-11,.cls-12,.cls-13,.cls-14,.cls-15,.cls-16,.cls-17,.cls-18,.cls-19,.cls-20,.cls-21,.cls-4,.cls-5,.cls-7,.cls-8{opacity:0.5;}.cls-4{fill:url(#linear-gradient);}.cls-5{fill:url(#linear-gradient-2);}.cls-6{fill:#edff00;}.cls-7,.cls-9{fill:#fff;}.cls-8{fill:url(#linear-gradient-3);}.cls-9{opacity:0.2;}.cls-10{fill:url(#linear-gradient-4);}.cls-11{fill:url(#linear-gradient-5);}.cls-12{fill:url(#linear-gradient-6);}.cls-13{fill:url(#linear-gradient-7);}.cls-14{fill:url(#linear-gradient-8);}.cls-15{fill:url(#linear-gradient-9);}.cls-16{fill:url(#linear-gradient-10);}.cls-17{fill:url(#linear-gradient-11);}.cls-18{fill:url(#linear-gradient-12);}.cls-19{fill:url(#linear-gradient-13);}.cls-20{fill:url(#linear-gradient-14);}.cls-21{fill:url(#linear-gradient-15);}.cls-22{stroke:#e8ffff;stroke-miterlimit:10;}</style><linearGradient id="linear-gradient" x1="461.83" y1="428.07" x2="714.04" y2="428.07" gradientUnits="userSpaceOnUse"><stop offset="0" stop-color="#fff"/><stop offset="0.21" stop-color="#b4b4b4"/><stop offset="0.42" stop-color="#747474"/><stop offset="0.6" stop-color="#424242"/><stop offset="0.76" stop-color="#1e1e1e"/><stop offset="0.89" stop-color="#080808"/><stop offset="0.98"/></linearGradient><linearGradient id="linear-gradient-2" x1="461.83" y1="442.85" x2="714.04" y2="442.85" xlink:href="#linear-gradient"/><linearGradient id="linear-gradient-3" x1="461.83" y1="475.58" x2="714.04" y2="475.58" xlink:href="#linear-gradient"/><linearGradient id="linear-gradient-4" x1="461.83" y1="375.91" x2="714.04" y2="375.91" xlink:href="#linear-gradient"/><linearGradient id="linear-gradient-5" x1="461.83" y1="516.62" x2="714.04" y2="516.62" xlink:href="#linear-gradient"/><linearGradient id="linear-gradient-6" x1="461.83" y1="611.07" x2="714.04" y2="611.07" xlink:href="#linear-gradient"/><linearGradient id="linear-gradient-7" x1="461.83" y1="555.13" x2="714.04" y2="555.13" xlink:href="#linear-gradient"/><linearGradient id="linear-gradient-8" x1="461.83" y1="321.14" x2="714.04" y2="321.14" xlink:href="#linear-gradient"/><linearGradient id="linear-gradient-9" x1="461.83" y1="341.14" x2="714.04" y2="341.14" xlink:href="#linear-gradient"/><linearGradient id="linear-gradient-10" x1="461.83" y1="330.99" x2="714.04" y2="330.99" xlink:href="#linear-gradient"/><linearGradient id="linear-gradient-11" x1="461.83" y1="390.21" x2="714.04" y2="390.21" xlink:href="#linear-gradient"/><linearGradient id="linear-gradient-12" x1="461.83" y1="415.21" x2="714.04" y2="415.21" xlink:href="#linear-gradient"/><linearGradient id="linear-gradient-13" x1="461.83" y1="473.15" x2="714.04" y2="473.15" xlink:href="#linear-gradient"/><linearGradient id="linear-gradient-14" x1="461.83" y1="281.25" x2="714.04" y2="281.25" xlink:href="#linear-gradient"/><linearGradient id="linear-gradient-15" x1="461.83" y1="367.57" x2="714.04" y2="367.57" xlink:href="#linear-gradient"/></defs><path class="cls-1" d="M481.59,389.32l0-.06a102.29,102.29,0,0,0-6.38,17.87c.52-.05,1-.14,1.52-.21A100.9,100.9,0,0,1,481.59,389.32Z" transform="translate(-287.18 -224)"/><path class="cls-1" d="M475,425.5c0-1.66,0-3.3.12-4.94l-2.28-1.14a102.51,102.51,0,0,0,79,113.07,59.25,59.25,0,0,0,2.47-7.12A102.54,102.54,0,0,1,475,425.5Z" transform="translate(-287.18 -224)"/><path class="cls-1" d="M590.15,531.84h0s0,0,0-.05a3.08,3.08,0,0,0-.28-.38,2.08,2.08,0,0,0-.15-.2l-.48-.63a.28.28,0,0,0-.07-.09c-.25-.32-.51-.65-.78-1-.56-.66-1.16-1.3-1.78-1.93l-.68.06q-.61,3.48-1.19,6.83c2.23-.22,4.45-.51,6.64-.87l-.45-.7C590.65,532.55,590.4,532.19,590.15,531.84Z" transform="translate(-287.18 -224)"/><path class="cls-1" d="M606.57,523.81a51.61,51.61,0,0,1,.38,5.93,102.74,102.74,0,0,0,61-55.21l-.64.31A102.7,102.7,0,0,1,606.57,523.81Z" transform="translate(-287.18 -224)"/><path class="cls-2" d="M632,422c3.31-3.37,6.66-7,10-10.8.66-.75,1.31-1.5,2-2.26s1.34-1.56,2-2.36c.54-.63,1.07-1.26,1.59-1.9l.41-.49h0c4.57-5.54,9.1-11.44,13.53-17.63.89-1.24,1.77-2.51,2.65-3.78q-2-3.58-4.25-7l-2.09,3.65C649.66,393.49,640.74,407.77,632,422Z" transform="translate(-287.18 -224)"/><path class="cls-2" d="M549.61,411.85a179.34,179.34,0,0,1,6.89-25.58C562.9,368.55,572,356,585,351a235.68,235.68,0,0,0,19.3-16.6A102.89,102.89,0,0,0,537.36,337C551.72,363.3,553.93,388,549.61,411.85Z" transform="translate(-287.18 -224)"/><path class="cls-2" d="M531,368q-1.56-1.77-3.14-3.52c-1.47-1.65-2.94-3.3-4.4-5l0,0c-2.69-3.1-5.32-6.28-7.81-9.65L515,349q-1.92,1.37-3.76,2.82A57.68,57.68,0,0,0,531,368Z" transform="translate(-287.18 -224)"/><path class="cls-2" d="M666.13,397.66c-5.21,9.52-11,19.34-17.13,29.34a24.8,24.8,0,0,0,2.59,0h.11l.29,0,.86-.06.48-.05.79-.09c.34,0,.69-.09,1-.16l.42-.07c.38-.07.77-.14,1.16-.23l.75-.18.85-.22.23-.06.59-.16.21-.07.35-.11,1.27-.42.1,0c.35-.12.69-.24,1-.38l.57-.22.09,0c.34-.13.69-.27,1-.42.66-.27,1.32-.57,2-.89s1.33-.64,2-1l1.19-.64c.93-.51,1.88-1.05,2.83-1.63q2-1.22,4-2.63a101.74,101.74,0,0,0-7-24.75c-.9,1.7-1.83,3.42-2.77,5.15Z" transform="translate(-287.18 -224)"/><path class="cls-2" d="M586,527c0,.22-.08.43-.11.65l.68-.06C586.38,527.39,586.2,527.19,586,527Z" transform="translate(-287.18 -224)"/><path class="cls-2" d="M506.56,428.13c-.3,0-.59,0-.88,0h-.22l-1,0c-1.58-.07-3.15-.21-4.72-.4-1-.11-2-.26-2.95-.42l-1.47-.27c-.49-.09-1-.19-1.48-.3-2.16-.45-4.3-1-6.43-1.66-1-.31-2-.65-3-1l-1.25-.46-.25.37c-2.62-1-5.22-2.11-7.8-3.36-.08,1.64-.12,3.28-.12,4.94a102.54,102.54,0,0,0,79.33,99.87A73,73,0,0,0,556,496c-8.12.31-16.51-.73-26-7-.35-.21-.68-.43-1-.66s-.59-.42-.87-.64l-.12-.09-.79-.67a15.57,15.57,0,0,1-1.67-1.68c-.19-.21-.36-.42-.53-.64s-.41-.54-.6-.82-.29-.43-.42-.64l-.13-.2h0c-.16-.25-.3-.5-.43-.75s-.24-.44-.35-.67a18.76,18.76,0,0,1-1-2.64c-.09-.25-.16-.5-.23-.76s-.14-.53-.2-.8a4.1,4.1,0,0,1-.1-.48,4.64,4.64,0,0,1-.11-.51l-.06-.29c0-.21-.07-.42-.1-.63s-.11-.68-.14-1-.08-.67-.11-1a42.27,42.27,0,0,1-.18-4.39c0-.55,0-1.1,0-1.66,0-1.11.08-2.23.14-3.35a36,36,0,0,0-2,5.14c-.08.27-.16.55-.23.82s-.14.53-.2.79A46.49,46.49,0,0,1,520,455c-3.67,4.35-5.66,9.86-6.33,16.28,0-.27-.06-.53-.08-.8-.06-.52-.09-1-.12-1.57,0-.26,0-.52,0-.79A49.53,49.53,0,0,1,515,455c-.21.25-.42.51-.62.77l-.4.54c-.27.36-.52.73-.76,1.1a1.58,1.58,0,0,0-.15.24c-.21.32-.41.65-.6,1a2.12,2.12,0,0,0-.11.21c-.21.36-.4.73-.59,1.11a.08.08,0,0,0,0,0c-.21.42-.4.85-.59,1.29a14.89,14.89,0,0,0-.59,1.49c-.1.26-.19.52-.28.79-.24.71-.46,1.44-.64,2.18-.1.37-.19.75-.27,1.13s-.15.7-.22,1.06a.3.3,0,0,0,0,.1c-.07.38-.14.77-.2,1.16-.13.79-.23,1.6-.31,2.42,0,.23-.05.47-.07.72s0,.38,0,.58c0,.36,0,.73-.07,1.1s0,.6,0,.91,0,.38,0,.56A71.56,71.56,0,0,0,509,486c-2.89-9.32-8.14-16.85-7.32-29a29.29,29.29,0,0,1,.31-3c0-.2.05-.41.09-.61l.09-.6c.07-.43.16-.87.25-1.31a5.78,5.78,0,0,1,.12-.57,5.23,5.23,0,0,1,.12-.54c0-.23.1-.46.15-.69a61,61,0,0,1,2.43-7.7c.13-.34.26-.69.4-1,.25-.63.52-1.28.81-1.94.11-.26.22-.54.35-.81.4-.9.82-1.83,1.28-2.78.17-.37.36-.74.55-1.12.39-.8.81-1.62,1.25-2.45l.65-1.23c.44-.82.91-1.67,1.4-2.53-.53,0-1.06,0-1.59,0h-.08l-.91,0C508.42,428.15,507.49,428.15,506.56,428.13Z" transform="translate(-287.18 -224)"/><path class="cls-2" d="M667.34,474.84c-22.24,11-46.6,17.1-72.34,20.16,6.75,9.83,10.46,19.42,11.57,28.81A102.7,102.7,0,0,0,667.34,474.84Z" transform="translate(-287.18 -224)"/><path class="cls-2" d="M496.81,369.37a4.82,4.82,0,0,1-.5-.27c-.4-.21-.79-.43-1.18-.66l-.42-.26-.28.35c1.19.53,2.38,1,3.57,1.47C497.6,369.8,497.2,369.59,496.81,369.37Z" transform="translate(-287.18 -224)"/><path class="cls-2" d="M482.65,388.5l.65.28a10,10,0,0,0,1.19.42c.19.06.37.11.56.15a6.19,6.19,0,0,0,.7.14,2.5,2.5,0,0,0,.38.06l.66.06a5.08,5.08,0,0,0,.78,0h.27a4.2,4.2,0,0,0,.62-.07h.06a3.43,3.43,0,0,0,.44-.09,3.73,3.73,0,0,0,.63-.18h0q.28-.09.57-.21l.25-.11a6.81,6.81,0,0,0,.7-.37c.12-.07.24-.14.35-.22s.23-.16.35-.24.41-.31.62-.48.34-.3.51-.47.35-.35.52-.54a3.47,3.47,0,0,0,.25-.29l.26-.3a63.45,63.45,0,0,1-8.76-3.9c-1.13,2-2.19,4-3.18,6.1l.32.17Z" transform="translate(-287.18 -224)"/><path class="cls-2" d="M673.25,445.41A335.87,335.87,0,0,1,639,469c.77.16,1.54.3,2.32.41q.51.09,1,.15c.48.07,1,.13,1.46.18s1.06.11,1.6.15l.94.07c.83.06,1.67.09,2.51.11,1.29,0,2.6,0,3.91,0,0,0,0,0,0,0s0,0,0,0,0,0,0,0a0,0,0,0,0,0,0l2-.11,2.15-.18,1.48-.16.68-.09c1.45-.18,2.9-.41,4.37-.67l1.53-.29,1.67-.35c.56-.11,1.12-.24,1.68-.37l1.78-.43.71-.19a101.31,101.31,0,0,0,5.54-24.4C675.42,443.66,674.35,444.54,673.25,445.41Z" transform="translate(-287.18 -224)"/><path class="cls-2" d="M490.91,411.78l-9.13-6.24a49.47,49.47,0,0,0,6.6-2.11A53,53,0,0,0,497,399c-6.31.76-11.1-3.65-15.41-9.68a100.9,100.9,0,0,0-4.9,17.6,48.73,48.73,0,0,0,5.08-.92h0l8.92,6.09h0Z" transform="translate(-287.18 -224)"/><path class="cls-3" d="M566,545a59.61,59.61,0,0,1-9.43,13.79h0c-.59.63-1.19,1.24-1.8,1.82C548.23,579.28,546,595.92,547,611q2.57-5.78,4.84-10.88c.44-12.58,3.12-26.23,8.5-41.16Q562.79,552.17,566,545Z" transform="translate(-287.18 -224)"/><path class="cls-3" d="M590.15,531.83h0c.25.35.5.71.74,1.07l.45.7.26.4c.45.73.88,1.49,1.29,2.26l.42.84a.91.91,0,0,1,.09.17c.12.24.24.48.35.73a3.49,3.49,0,0,1,.15.34c.2.44.4.89.58,1.35s.33.79.47,1.2a1.07,1.07,0,0,1,.07.19c.15.42.3.84.44,1.26s.2.59.29.9l0,.06c.14.44.27.9.39,1.36s.28,1.07.41,1.61.24,1.05.34,1.59c.06.26.11.52.15.79.2,1,.36,2.1.49,3.18A64.84,64.84,0,0,1,598,561a76.22,76.22,0,0,0,4.53-9.34c-1.25-9.89-4.94-18.21-11.53-24.66Z" transform="translate(-287.18 -224)"/><path class="cls-3" d="M501,348c-1.68-1.95-3.25-3.88-4.69-5.8-19.57-25.88-18.39-49.24-12.09-69.57-.45-3.45-.85-7-1.22-10.63-7.36,18.55-12.56,40-1.58,63.89,5.55,8.75,9.65,14.49,12.68,18C497.8,348.15,499.88,349.07,501,348Z" transform="translate(-287.18 -224)"/><path class="cls-3" d="M571.21,635.48c0-.1,0-.21-.05-.31C566,623.45,564,605.24,568,575c-1.72,3.87-3.92,8.8-6.54,14.72-3.28,43.35,8.32,56.49,22.54,64.28-2.69-3-5.57-5-7.58-10.1a38.08,38.08,0,0,1-5.18-8.54Z" transform="translate(-287.18 -224)"/><path class="cls-3" d="M523.44,359.48l0,0A54.42,54.42,0,0,0,536,368c-9.31-10.5-19-20.57-25.13-35-7.34-17.15-9.72-40.46-.64-78q.25-11.4,1.77-24c-16.6,52.09-14.92,81.48-6.13,102,.2.47.41.94.62,1.4s.29.64.43.95c.54,1.14,1.09,2.26,1.68,3.34.31.61.64,1.2,1,1.79a88,88,0,0,0,5.28,8.25l.19.27.59.81C518.12,353.2,520.75,356.38,523.44,359.48Z" transform="translate(-287.18 -224)"/><path class="cls-3" d="M546.19,563.68l-22.14,7.93A38.74,38.74,0,0,0,546.19,563.68Z" transform="translate(-287.18 -224)"/><path class="cls-3" d="M497,399a53,53,0,0,1-8.62,4.43,49.47,49.47,0,0,1-6.6,2.11l9.13,6.24-.21.31h0l.21.15-7.74,11.31,1.25.46c1,.35,2,.69,3,1,2.13.65,4.27,1.21,6.43,1.66.49.11,1,.21,1.48.3l1.47.27c1,.16,2,.31,2.95.42,1.57.19,3.14.33,4.72.4l1,0h.22c.29,0,.58,0,.88,0,.93,0,1.86,0,2.79,0l.91,0a70.36,70.36,0,0,1-22.34-4.63l8-11.68-9.13-6.24a49.47,49.47,0,0,0,6.6-2.11A53,53,0,0,0,502,399c-6.21.74-10.95-3.5-15.21-9.39l-.66-.06a2.5,2.5,0,0,1-.38-.06,6.19,6.19,0,0,1-.7-.14c-.19,0-.37-.09-.56-.15a10,10,0,0,1-1.19-.42l-.65-.28-.27-.13-.32-.17-.38-.19a19.17,19.17,0,0,1-1.68-1c.51.78,1,1.53,1.55,2.26l0,.06C485.9,395.35,490.69,399.76,497,399Z" transform="translate(-287.18 -224)"/><path class="cls-3" d="M539.41,556.44C556.32,541.28,564.35,521.56,561,496c-8.12.31-16.51-.73-26-7-9.33-5.76-9.55-15.23-9-25-3.46,7.41-3.75,13.55-2.13,18.95h0l.13.2c.13.21.27.43.42.64s.39.55.6.82.34.43.53.64a15.57,15.57,0,0,0,1.67,1.68l.79.67.12.09c.28.22.57.43.87.64s.65.45,1,.66c9.49,6.27,17.88,7.31,26,7a73,73,0,0,1-1.67,29.37,59.25,59.25,0,0,1-2.47,7.12,66.62,66.62,0,0,1-17.45,24A105.07,105.07,0,0,1,513,571a53.71,53.71,0,0,0,11,.61,58.76,58.76,0,0,1-6-.61A105.07,105.07,0,0,0,539.41,556.44Z" transform="translate(-287.18 -224)"/><path class="cls-3" d="M493.74,386.3a3.47,3.47,0,0,1-.25.29c-.17.19-.34.37-.52.54s-.34.32-.51.47-.41.33-.62.48-.23.17-.35.24-.23.15-.35.22a6.81,6.81,0,0,1-.7.37l-.25.11q-.29.12-.57.21h0c3.61,1,6.76,0,9.4-3.24-12.2-4.38-20.71-11.28-26.73-19.87-4.91-7-8.18-15.08-10.44-23.86q-3.4-3.9-6.83-8.27c2.24,12,5.85,23,12.27,32.13a51.69,51.69,0,0,0,18,16A63.45,63.45,0,0,0,494,386Z" transform="translate(-287.18 -224)"/><path class="cls-3" d="M509.88,431.89c-.44.83-.86,1.65-1.25,2.45-.19.38-.38.75-.55,1.12-.46,1-.88,1.88-1.28,2.78-.13.27-.24.55-.35.81-.29.66-.56,1.31-.81,1.94-.14.35-.27.7-.4,1a61,61,0,0,0-2.43,7.7c-.05.23-.11.46-.15.69a5.23,5.23,0,0,0-.12.54,5.78,5.78,0,0,0-.12.57c-.09.44-.18.88-.25,1.31l-.09.6c0,.2-.07.41-.09.61a29.29,29.29,0,0,0-.31,3c-.82,12.12,4.43,19.65,7.32,29a71.56,71.56,0,0,1-.6-10.52c0-.18,0-.37,0-.56s0-.61,0-.91,0-.74.07-1.1c0-.2,0-.39,0-.58s.05-.49.07-.72c-3.25-10-4-21.83,8.37-43.61-1.7.11-3.39.16-5.07.13-.49.86-1,1.71-1.4,2.53Z" transform="translate(-287.18 -224)"/><path class="cls-3" d="M483.62,353.1c-8.53-11.79-14-27.39-17.95-44.89-2.38-4-4.93-8.42-7.67-13.21,4.12,22.82,10,43.42,20.62,58.1q1,1.47,2.19,2.85c.22.29.45.57.7.85a3.11,3.11,0,0,0,.23.28l0,0A72,72,0,0,0,503,370,53,53,0,0,1,483.62,353.1Z" transform="translate(-287.18 -224)"/><path class="cls-3" d="M648,404.18h0c-3.64,5.94-7.31,11.87-11,17.81a301.55,301.55,0,0,0,29.49-35.45c6-8.37,11.79-17.27,17.19-26.5A119.83,119.83,0,0,0,689,341a336.36,336.36,0,0,1-24.86,41.77c-.88,1.27-1.76,2.54-2.65,3.78C657.06,392.74,652.53,398.64,648,404.18Z" transform="translate(-287.18 -224)"/><path class="cls-3" d="M689,305.4q.71-4.26,1-8.4c-16.47,23.17-28.39,38.72-35,45.36-.32.89-.65,1.76-1,2.64C654.74,350.13,667.14,335.69,689,305.4Z" transform="translate(-287.18 -224)"/><path class="cls-3" d="M688.18,309.64c.3-1.42.58-2.84.81-4.24l-2,5.39C687.41,310.37,687.81,310,688.18,309.64Z" transform="translate(-287.18 -224)"/><path class="cls-3" d="M670,357.27c8.25-16.08,14.72-31.67,18-46.38-1.53,3.51-3.09,6.89-4.65,10.09Z" transform="translate(-287.18 -224)"/><path class="cls-3" d="M654.55,241.8l.37,84.21C661.2,299.76,660.83,270.9,654.55,241.8Z" transform="translate(-287.18 -224)"/><path class="cls-3" d="M556.5,386.27a116.8,116.8,0,0,1-1.89,25.58c6.2-31.06,16.75-53.72,35.39-60.85a231,231,0,0,0,22.35-19.59c30.18-30.3,40.07-60.06,42.2-89.61q-1.9-8.9-4.55-17.8c.58,35.4-6.4,71-42.65,107.41-1,1-2,2-3.05,3A235.68,235.68,0,0,1,585,351C572,356,562.9,368.55,556.5,386.27Z" transform="translate(-287.18 -224)"/><path class="cls-3" d="M668.45,467.81c-.56.13-1.12.26-1.68.37l-1.67.35-1.53.29c-1.47.26-2.92.49-4.37.67l-.68.09-1.48.16-2.15.18-2,.11a79.77,79.77,0,0,0,22.36-2.65q5.29-1.32,10.72-3.19,3.06-2,6-4.19a156.19,156.19,0,0,1-21.06,7.19l-.71.19Z" transform="translate(-287.18 -224)"/><path class="cls-3" d="M669,421.51l-1.19.64q-1,.53-2,1c-.67.32-1.33.62-2,.89-.34.15-.69.29-1,.42l-.09,0-.57.22c-.34.14-.68.26-1,.38l-.1,0-1.27.42-.35.11-.21.07-.59.16-.23.06-.85.22-.75.18c-.39.09-.78.16-1.16.23l-.42.07c-.35.07-.7.12-1,.16l-.12.2c7,.44,14.61-2.13,22.83-7.12,11.43-6.94,24-18.56,37.21-33.27a42,42,0,0,0,0-5.61c-13.52,15.56-26.36,28.18-38.13,36.25q-2,1.41-4,2.63C670.88,420.46,669.93,421,669,421.51Z" transform="translate(-287.18 -224)"/><path class="cls-2" d="M512,428l-1.66.09c.53,0,1.06,0,1.59,0Z" transform="translate(-287.18 -224)"/><path class="cls-4" d="M512,428l-1.66.09c.53,0,1.06,0,1.59,0Z" transform="translate(-287.18 -224)"/><path class="cls-3" d="M652.87,470a0,0,0,0,1,0,0s0,0,0,0,0,0,0,0,0,0,0,0c-1.31.05-2.62.07-3.91,0-.84,0-1.68-.05-2.51-.11l-.94-.07c-.54,0-1.07-.09-1.6-.15s-1-.11-1.46-.18-.68-.09-1-.15c-.78-.11-1.55-.25-2.32-.41a335.87,335.87,0,0,0,34.25-23.59c1.1-.87,2.17-1.75,3.23-2.62q36-29.66,37.56-56.18c-13.25,14.71-25.78,26.33-37.21,33.27-8.22,5-15.88,7.56-22.83,7.12l.12-.2-.79.09-.48.05L652,427l-.29,0h-.11a24.8,24.8,0,0,1-2.59,0c6.13-10,11.92-19.82,17.13-29.34h0c.94-1.73,1.87-3.45,2.77-5.15a262.42,262.42,0,0,0,14.78-32.45c-5.4,9.23-11.2,18.13-17.19,26.5A301.55,301.55,0,0,1,637,422c3.65-5.94,7.32-11.87,11-17.81l-.41.49c-.52.64-1,1.27-1.59,1.9-.66.8-1.33,1.58-2,2.36s-1.3,1.51-2,2.26c-3.34,3.82-6.69,7.43-10,10.8,8.74-14.23,17.66-28.51,25.8-42.57l2.09-3.65c3.54-6.21,6.93-12.38,10.05-18.48v0L683.27,321c-7,14.36-14,25.35-19.35,30.21,8.42-19.07,17.05-34.06,23.09-40.4l2-5.39c-21.85,30.29-34.25,44.73-35,39.6.34-.88.67-1.75,1-2.64-3.66,3.68-5.7,4.63-6,2.64a147.27,147.27,0,0,0,5.92-19l-.37-84.21c-2.13,29.55-12,59.31-42.2,89.61A231,231,0,0,1,590,351c-18.64,7.13-29.19,29.79-35.39,60.85a116.8,116.8,0,0,0,1.89-25.58,179.34,179.34,0,0,0-6.89,25.58c4.32-23.84,2.11-48.55-12.25-74.9a149.55,149.55,0,0,0-8.1-13.15q-3.33-4.86-7.26-9.8c-8.69-15-12.36-34.95-11.77-59-9.08,37.55-6.7,60.86.64,78C517,347.43,526.69,357.5,536,368a54.42,54.42,0,0,1-12.54-8.5c1.46,1.68,2.93,3.33,4.4,5q1.57,1.75,3.14,3.52a57.68,57.68,0,0,1-19.72-16.16,87.93,87.93,0,0,1-10.17-16.16c-7.83-15.79-13.51-36.7-16.89-63.05-6.3,20.33-7.48,43.69,12.09,69.57,1.44,1.92,3,3.85,4.69,5.8-1.12,1.07-3.2.15-6.9-4.12-3-3.5-7.13-9.24-12.68-18a88.82,88.82,0,0,0,9.89,16.31c1.44,1.92,3,3.85,4.69,5.8-1.12,1.07-3.2.15-6.9-4.12-4.72-5.46-12.07-16.4-23.43-35.67,3.95,17.5,9.42,33.1,17.95,44.89A53,53,0,0,0,503,370a72,72,0,0,1-21.24-12.9c.56.67,1.14,1.33,1.75,2l.9.95c.18.2.37.39.56.57a8.42,8.42,0,0,0,.61.59.38.38,0,0,0,.09.09l.6.57c.32.3.64.6,1,.88s.37.33.56.49l.63.53c.13.12.27.23.4.33.77.64,1.56,1.25,2.38,1.83l1.19.83c.44.3.89.6,1.35.88s.63.39,1,.58l.42.26c.39.23.78.45,1.18.66a4.82,4.82,0,0,0,.5.27c.39.22.79.43,1.19.63-1.19-.44-2.38-.94-3.57-1.47a77.85,77.85,0,0,1-18.78-12.37,138.5,138.5,0,0,1-13.82-13.89c2.26,8.78,5.53,16.88,10.44,23.86,6,8.59,14.53,15.49,26.73,19.87-2.64,3.25-5.79,4.27-9.4,3.24h0a3.73,3.73,0,0,1-.63.18,3.43,3.43,0,0,1-.44.09h-.06a4.2,4.2,0,0,1-.62.07h-.27a5.08,5.08,0,0,1-.78,0c4.26,5.89,9,10.13,15.21,9.39a53,53,0,0,1-8.62,4.43,49.47,49.47,0,0,1-6.6,2.11l9.13,6.24-8,11.68a70.36,70.36,0,0,0,22.34,4.63h.08L512,428l-.07.13c1.68,0,3.37,0,5.07-.13-12.37,21.78-11.62,33.64-8.37,43.61.08-.82.18-1.63.31-2.42.06-.39.13-.78.2-1.16a.3.3,0,0,1,0-.1c.07-.36.15-.72.22-1.06s.17-.76.27-1.13c.18-.74.4-1.47.64-2.18.09-.27.18-.53.28-.79a14.89,14.89,0,0,1,.59-1.49c.19-.44.38-.87.59-1.29a.08.08,0,0,1,0,0c.19-.38.38-.75.59-1.11a2.12,2.12,0,0,1,.11-.21c.19-.33.39-.66.6-1a1.58,1.58,0,0,1,.15-.24c.24-.37.49-.74.76-1.1l.4-.54c.2-.26.41-.52.62-.77a49.53,49.53,0,0,0-1.56,13.12c0,.27,0,.53,0,.79,0,.53.06,1,.12,1.57,0,.27,0,.53.08.8.67-6.42,2.66-11.93,6.33-16.28a46.49,46.49,0,0,0-1.39,15.75c.06-.26.13-.53.2-.79s.15-.55.23-.82a36,36,0,0,1,2-5.14c-.06,1.12-.12,2.24-.14,3.35,0,.56,0,1.11,0,1.66a42.27,42.27,0,0,0,.18,4.39c0,.33.06.67.11,1s.08.68.14,1,.06.42.1.63l.06.29a4.64,4.64,0,0,0,.11.51,4.1,4.1,0,0,0,.1.48c.06.27.13.54.2.8s.14.51.23.76a18.76,18.76,0,0,0,1,2.64c.11.23.23.45.35.67s.27.5.43.75c-1.62-5.4-1.33-11.54,2.13-18.95-.55,9.77-.33,19.24,9,25,9.49,6.27,17.88,7.31,26,7,3.35,25.56-4.68,45.28-21.59,60.44A105.07,105.07,0,0,1,518,571a58.76,58.76,0,0,0,6,.61l22.14-7.93a43.64,43.64,0,0,0,5.37-4.89h0A59.61,59.61,0,0,0,561,545q-3.22,7.17-5.66,14c-.2.55-.39,1.1-.58,1.65.61-.58,1.21-1.19,1.8-1.82h0A59.61,59.61,0,0,0,566,545q-3.22,7.17-5.66,14c-5.38,14.93-8.06,28.58-8.5,41.16C556.59,589.42,560.35,581,563,575q-1,7.89-1.54,14.72c2.62-5.92,4.82-10.85,6.54-14.72-4,30.24-2,48.45,3.16,60.17-3.7-22.34-4.46-40.77-2.09-48.38,3.81,21.36,4.52,39.7,2.17,48.57a38.08,38.08,0,0,0,5.18,8.54c-3.7-9.49-4.42-29.81,4.62-87.26,1.08-6.85,2.29-14.22,3.66-22.16q.57-3.35,1.19-6.83c0-.22.07-.43.11-.65.2.19.38.39.57.59.62.63,1.22,1.27,1.78,1.93.27.31.53.64.78,1a.28.28,0,0,1,.07.09l.48.63a2.08,2.08,0,0,1,.15.2,3.08,3.08,0,0,1,.28.38s0,0,0,.05L591,527c6.59,6.45,10.28,14.77,11.53,24.66.3-.73.58-1.47.85-2.21A56.51,56.51,0,0,0,607,529.74a51.61,51.61,0,0,0-.38-5.93c-1.11-9.39-4.82-19-11.57-28.81,25.74-3.06,50.1-9.2,72.34-20.16l.64-.31.44-.21h0q4.73-2.37,9.33-5c-16.34,5.76-29.94,9.55-37,10.34,17.47-6.43,32.45-11.08,41.32-12.91,1.31-.82,2.62-1.65,3.91-2.51q-5.43,1.86-10.72,3.19A79.77,79.77,0,0,1,652.87,470Zm57.43-71.18c-14.14,16.58-27.84,28.88-36,32.73C689.23,414.41,703,402,710.3,398.85Zm-30.67-29.61c-8.59,20-18,35.84-24.71,41.95C664.13,390.35,673.58,374.37,679.63,369.24Zm-25.55-111.6c-3.05,21.57-6.92,39.41-10.08,47.23C647.32,282.34,651.18,264.34,654.08,257.64ZM481.94,298.57c10.82,18.92,17.69,36,18.41,45.13C489.25,323.8,482.27,306.58,481.94,298.57Zm-11.76,56.65c9.94,9.68,17,19.07,18.92,24.7C478.83,369.67,471.64,360.23,470.18,355.22Zm51.76-36.65c10.82,18.92,17.69,36,18.41,45.13C529.25,343.8,522.27,326.58,521.94,318.57ZM544.5,488a13.51,13.51,0,0,1-7.34-24.84,13.51,13.51,0,0,0,18.68,18.68A13.5,13.5,0,0,1,544.5,488Zm-8.17,77.9c8.65-11.37,17-19.56,21.86-21.54C550.07,555.34,541.74,563.43,536.33,565.9Zm50.72-202c-11.24,1.16-19.43,13.38-18.42,27.61a6,6,0,0,0,.06.61c-.58,0-1.15.09-1.71.16a33.31,33.31,0,0,1-.74-5c-1-14.45,7.45-26.83,19-27.65a16.3,16.3,0,0,1,3.7.15A20.23,20.23,0,0,0,587.05,363.87Zm15.19,168c-7.39-13.36-11.91-25-11.92-30.49C597.54,514.06,602,525.62,602.24,531.86Z" transform="translate(-287.18 -224)"/><path class="cls-5" d="M652.87,470a0,0,0,0,1,0,0s0,0,0,0,0,0,0,0,0,0,0,0c-1.31.05-2.62.07-3.91,0-.84,0-1.68-.05-2.51-.11l-.94-.07c-.54,0-1.07-.09-1.6-.15s-1-.11-1.46-.18-.68-.09-1-.15c-.78-.11-1.55-.25-2.32-.41a335.87,335.87,0,0,0,34.25-23.59c1.1-.87,2.17-1.75,3.23-2.62q36-29.66,37.56-56.18c-13.25,14.71-25.78,26.33-37.21,33.27-8.22,5-15.88,7.56-22.83,7.12l.12-.2-.79.09-.48.05L652,427l-.29,0h-.11a24.8,24.8,0,0,1-2.59,0c6.13-10,11.92-19.82,17.13-29.34h0c.94-1.73,1.87-3.45,2.77-5.15a262.42,262.42,0,0,0,14.78-32.45c-5.4,9.23-11.2,18.13-17.19,26.5A301.55,301.55,0,0,1,637,422c3.65-5.94,7.32-11.87,11-17.81l-.41.49c-.52.64-1,1.27-1.59,1.9-.66.8-1.33,1.58-2,2.36s-1.3,1.51-2,2.26c-3.34,3.82-6.69,7.43-10,10.8,8.74-14.23,17.66-28.51,25.8-42.57l2.09-3.65c3.54-6.21,6.93-12.38,10.05-18.48v0L683.27,321c-7,14.36-14,25.35-19.35,30.21,8.42-19.07,17.05-34.06,23.09-40.4l2-5.39c-21.85,30.29-34.25,44.73-35,39.6.34-.88.67-1.75,1-2.64-3.66,3.68-5.7,4.63-6,2.64a147.27,147.27,0,0,0,5.92-19l-.37-84.21c-2.13,29.55-12,59.31-42.2,89.61A231,231,0,0,1,590,351c-18.64,7.13-29.19,29.79-35.39,60.85a116.8,116.8,0,0,0,1.89-25.58,179.34,179.34,0,0,0-6.89,25.58c4.32-23.84,2.11-48.55-12.25-74.9a149.55,149.55,0,0,0-8.1-13.15q-3.33-4.86-7.26-9.8c-8.69-15-12.36-34.95-11.77-59-9.08,37.55-6.7,60.86.64,78C517,347.43,526.69,357.5,536,368a54.42,54.42,0,0,1-12.54-8.5c1.46,1.68,2.93,3.33,4.4,5q1.57,1.75,3.14,3.52a57.68,57.68,0,0,1-19.72-16.16,87.93,87.93,0,0,1-10.17-16.16c-7.83-15.79-13.51-36.7-16.89-63.05-6.3,20.33-7.48,43.69,12.09,69.57,1.44,1.92,3,3.85,4.69,5.8-1.12,1.07-3.2.15-6.9-4.12-3-3.5-7.13-9.24-12.68-18a88.82,88.82,0,0,0,9.89,16.31c1.44,1.92,3,3.85,4.69,5.8-1.12,1.07-3.2.15-6.9-4.12-4.72-5.46-12.07-16.4-23.43-35.67,3.95,17.5,9.42,33.1,17.95,44.89A53,53,0,0,0,503,370a72,72,0,0,1-21.24-12.9c.56.67,1.14,1.33,1.75,2l.9.95c.18.2.37.39.56.57a8.42,8.42,0,0,0,.61.59.38.38,0,0,0,.09.09l.6.57c.32.3.64.6,1,.88s.37.33.56.49l.63.53c.13.12.27.23.4.33.77.64,1.56,1.25,2.38,1.83l1.19.83c.44.3.89.6,1.35.88s.63.39,1,.58l.42.26c.39.23.78.45,1.18.66a4.82,4.82,0,0,0,.5.27c.39.22.79.43,1.19.63-1.19-.44-2.38-.94-3.57-1.47a77.85,77.85,0,0,1-18.78-12.37,138.5,138.5,0,0,1-13.82-13.89c2.26,8.78,5.53,16.88,10.44,23.86,6,8.59,14.53,15.49,26.73,19.87-2.64,3.25-5.79,4.27-9.4,3.24h0a3.73,3.73,0,0,1-.63.18,3.43,3.43,0,0,1-.44.09h-.06a4.2,4.2,0,0,1-.62.07h-.27a5.08,5.08,0,0,1-.78,0c4.26,5.89,9,10.13,15.21,9.39a53,53,0,0,1-8.62,4.43,49.47,49.47,0,0,1-6.6,2.11l9.13,6.24-8,11.68a70.36,70.36,0,0,0,22.34,4.63h.08L512,428l-.07.13c1.68,0,3.37,0,5.07-.13-12.37,21.78-11.62,33.64-8.37,43.61.08-.82.18-1.63.31-2.42.06-.39.13-.78.2-1.16a.3.3,0,0,1,0-.1c.07-.36.15-.72.22-1.06s.17-.76.27-1.13c.18-.74.4-1.47.64-2.18.09-.27.18-.53.28-.79a14.89,14.89,0,0,1,.59-1.49c.19-.44.38-.87.59-1.29a.08.08,0,0,1,0,0c.19-.38.38-.75.59-1.11a2.12,2.12,0,0,1,.11-.21c.19-.33.39-.66.6-1a1.58,1.58,0,0,1,.15-.24c.24-.37.49-.74.76-1.1l.4-.54c.2-.26.41-.52.62-.77a49.53,49.53,0,0,0-1.56,13.12c0,.27,0,.53,0,.79,0,.53.06,1,.12,1.57,0,.27,0,.53.08.8.67-6.42,2.66-11.93,6.33-16.28a46.49,46.49,0,0,0-1.39,15.75c.06-.26.13-.53.2-.79s.15-.55.23-.82a36,36,0,0,1,2-5.14c-.06,1.12-.12,2.24-.14,3.35,0,.56,0,1.11,0,1.66a42.27,42.27,0,0,0,.18,4.39c0,.33.06.67.11,1s.08.68.14,1,.06.42.1.63l.06.29a4.64,4.64,0,0,0,.11.51,4.1,4.1,0,0,0,.1.48c.06.27.13.54.2.8s.14.51.23.76a18.76,18.76,0,0,0,1,2.64c.11.23.23.45.35.67s.27.5.43.75c-1.62-5.4-1.33-11.54,2.13-18.95-.55,9.77-.33,19.24,9,25,9.49,6.27,17.88,7.31,26,7,3.35,25.56-4.68,45.28-21.59,60.44A105.07,105.07,0,0,1,518,571a58.76,58.76,0,0,0,6,.61l22.14-7.93a43.64,43.64,0,0,0,5.37-4.89h0A59.61,59.61,0,0,0,561,545q-3.22,7.17-5.66,14c-.2.55-.39,1.1-.58,1.65.61-.58,1.21-1.19,1.8-1.82h0A59.61,59.61,0,0,0,566,545q-3.22,7.17-5.66,14c-5.38,14.93-8.06,28.58-8.5,41.16C556.59,589.42,560.35,581,563,575q-1,7.89-1.54,14.72c2.62-5.92,4.82-10.85,6.54-14.72-4,30.24-2,48.45,3.16,60.17-3.7-22.34-4.46-40.77-2.09-48.38,3.81,21.36,4.52,39.7,2.17,48.57a38.08,38.08,0,0,0,5.18,8.54c-3.7-9.49-4.42-29.81,4.62-87.26,1.08-6.85,2.29-14.22,3.66-22.16q.57-3.35,1.19-6.83c0-.22.07-.43.11-.65.2.19.38.39.57.59.62.63,1.22,1.27,1.78,1.93.27.31.53.64.78,1a.28.28,0,0,1,.07.09l.48.63a2.08,2.08,0,0,1,.15.2,3.08,3.08,0,0,1,.28.38s0,0,0,.05L591,527c6.59,6.45,10.28,14.77,11.53,24.66.3-.73.58-1.47.85-2.21A56.51,56.51,0,0,0,607,529.74a51.61,51.61,0,0,0-.38-5.93c-1.11-9.39-4.82-19-11.57-28.81,25.74-3.06,50.1-9.2,72.34-20.16l.64-.31.44-.21h0q4.73-2.37,9.33-5c-16.34,5.76-29.94,9.55-37,10.34,17.47-6.43,32.45-11.08,41.32-12.91,1.31-.82,2.62-1.65,3.91-2.51q-5.43,1.86-10.72,3.19A79.77,79.77,0,0,1,652.87,470Zm57.43-71.18c-14.14,16.58-27.84,28.88-36,32.73C689.23,414.41,703,402,710.3,398.85Zm-30.67-29.61c-8.59,20-18,35.84-24.71,41.95C664.13,390.35,673.58,374.37,679.63,369.24Zm-25.55-111.6c-3.05,21.57-6.92,39.41-10.08,47.23C647.32,282.34,651.18,264.34,654.08,257.64ZM481.94,298.57c10.82,18.92,17.69,36,18.41,45.13C489.25,323.8,482.27,306.58,481.94,298.57Zm-11.76,56.65c9.94,9.68,17,19.07,18.92,24.7C478.83,369.67,471.64,360.23,470.18,355.22Zm51.76-36.65c10.82,18.92,17.69,36,18.41,45.13C529.25,343.8,522.27,326.58,521.94,318.57ZM544.5,488a13.51,13.51,0,0,1-7.34-24.84,13.51,13.51,0,0,0,18.68,18.68A13.5,13.5,0,0,1,544.5,488Zm-8.17,77.9c8.65-11.37,17-19.56,21.86-21.54C550.07,555.34,541.74,563.43,536.33,565.9Zm50.72-202c-11.24,1.16-19.43,13.38-18.42,27.61a6,6,0,0,0,.06.61c-.58,0-1.15.09-1.71.16a33.31,33.31,0,0,1-.74-5c-1-14.45,7.45-26.83,19-27.65a16.3,16.3,0,0,1,3.7.15A20.23,20.23,0,0,0,587.05,363.87Zm15.19,168c-7.39-13.36-11.91-25-11.92-30.49C597.54,514.06,602,525.62,602.24,531.86Z" transform="translate(-287.18 -224)"/><path class="cls-6" d="M482.92,423.92l.25-.37,7.74-11.31-.21-.15L481.78,406h0a48.73,48.73,0,0,1-5.08.92c-.51.07-1,.16-1.52.21a60.88,60.88,0,0,1-7.17.33c-7.5,3.48-9.78,8.34-9,14l12-3c.61.33,1.22.64,1.84,1l2.28,1.14C477.7,421.81,480.3,422.94,482.92,423.92ZM471,412c0-1.1,1.79-2,4-2s4,.9,4,2-1.79,2-4,2S471,413.1,471,412Z" transform="translate(-287.18 -224)"/><ellipse class="cls-6" cx="187.82" cy="188" rx="4" ry="2"/><ellipse class="cls-7" cx="187.82" cy="188" rx="4" ry="2"/><path class="cls-3" d="M535,470.5a13.51,13.51,0,0,1,2.16-7.34,13.51,13.51,0,1,0,18.68,18.68A13.51,13.51,0,0,1,535,470.5Z" transform="translate(-287.18 -224)"/><path class="cls-8" d="M535,470.5a13.51,13.51,0,0,1,2.16-7.34,13.51,13.51,0,1,0,18.68,18.68A13.51,13.51,0,0,1,535,470.5Z" transform="translate(-287.18 -224)"/><path class="cls-9" d="M535,470.5a13.51,13.51,0,0,1,2.16-7.34,13.51,13.51,0,1,0,18.68,18.68A13.51,13.51,0,0,1,535,470.5Z" transform="translate(-287.18 -224)"/><path class="cls-3" d="M585.19,359.61c-11.5.82-20,13.2-19,27.65a33.31,33.31,0,0,0,.74,5c.56-.07,1.13-.13,1.71-.16a6,6,0,0,1-.06-.61c-1-14.23,7.18-26.45,18.42-27.61a20.23,20.23,0,0,1,1.84-4.11A16.3,16.3,0,0,0,585.19,359.61Z" transform="translate(-287.18 -224)"/><path class="cls-10" d="M585.19,359.61c-11.5.82-20,13.2-19,27.65a33.31,33.31,0,0,0,.74,5c.56-.07,1.13-.13,1.71-.16a6,6,0,0,1-.06-.61c-1-14.23,7.18-26.45,18.42-27.61a20.23,20.23,0,0,1,1.84-4.11A16.3,16.3,0,0,0,585.19,359.61Z" transform="translate(-287.18 -224)"/><path class="cls-9" d="M585.19,359.61c-11.5.82-20,13.2-19,27.65a33.31,33.31,0,0,0,.74,5c.56-.07,1.13-.13,1.71-.16a6,6,0,0,1-.06-.61c-1-14.23,7.18-26.45,18.42-27.61a20.23,20.23,0,0,1,1.84-4.11A16.3,16.3,0,0,0,585.19,359.61Z" transform="translate(-287.18 -224)"/><path class="cls-3" d="M602.24,531.86c-.26-6.24-4.7-17.8-11.92-30.49C590.33,506.86,594.85,518.5,602.24,531.86Z" transform="translate(-287.18 -224)"/><path class="cls-11" d="M602.24,531.86c-.26-6.24-4.7-17.8-11.92-30.49C590.33,506.86,594.85,518.5,602.24,531.86Z" transform="translate(-287.18 -224)"/><path class="cls-9" d="M602.24,531.86c-.26-6.24-4.7-17.8-11.92-30.49C590.33,506.86,594.85,518.5,602.24,531.86Z" transform="translate(-287.18 -224)"/><path class="cls-3" d="M571.24,635.36c0-.07-.06-.13-.08-.19,0,.1,0,.21.05.31Z" transform="translate(-287.18 -224)"/><path class="cls-9" d="M571.24,635.36c0-.07-.06-.13-.08-.19,0,.1,0,.21.05.31Z" transform="translate(-287.18 -224)"/><path class="cls-3" d="M569.07,586.79c-2.37,7.61-1.61,26,2.09,48.38,0,.06.05.12.08.19C573.59,626.49,572.88,608.15,569.07,586.79Z" transform="translate(-287.18 -224)"/><path class="cls-12" d="M569.07,586.79c-2.37,7.61-1.61,26,2.09,48.38,0,.06.05.12.08.19C573.59,626.49,572.88,608.15,569.07,586.79Z" transform="translate(-287.18 -224)"/><path class="cls-9" d="M569.07,586.79c-2.37,7.61-1.61,26,2.09,48.38,0,.06.05.12.08.19C573.59,626.49,572.88,608.15,569.07,586.79Z" transform="translate(-287.18 -224)"/><path class="cls-3" d="M536.33,565.9c5.41-2.47,13.74-10.56,21.86-21.54C553.33,546.34,545,554.53,536.33,565.9Z" transform="translate(-287.18 -224)"/><path class="cls-13" d="M536.33,565.9c5.41-2.47,13.74-10.56,21.86-21.54C553.33,546.34,545,554.53,536.33,565.9Z" transform="translate(-287.18 -224)"/><path class="cls-9" d="M536.33,565.9c5.41-2.47,13.74-10.56,21.86-21.54C553.33,546.34,545,554.53,536.33,565.9Z" transform="translate(-287.18 -224)"/><path class="cls-3" d="M500.35,343.7c-.72-9.11-7.59-26.21-18.41-45.13C482.27,306.58,489.25,323.8,500.35,343.7Z" transform="translate(-287.18 -224)"/><path class="cls-14" d="M500.35,343.7c-.72-9.11-7.59-26.21-18.41-45.13C482.27,306.58,489.25,323.8,500.35,343.7Z" transform="translate(-287.18 -224)"/><path class="cls-9" d="M500.35,343.7c-.72-9.11-7.59-26.21-18.41-45.13C482.27,306.58,489.25,323.8,500.35,343.7Z" transform="translate(-287.18 -224)"/><path class="cls-3" d="M521.94,318.57c.33,8,7.31,25.23,18.41,45.13C539.63,354.59,532.76,337.49,521.94,318.57Z" transform="translate(-287.18 -224)"/><path class="cls-15" d="M521.94,318.57c.33,8,7.31,25.23,18.41,45.13C539.63,354.59,532.76,337.49,521.94,318.57Z" transform="translate(-287.18 -224)"/><path class="cls-9" d="M521.94,318.57c.33,8,7.31,25.23,18.41,45.13C539.63,354.59,532.76,337.49,521.94,318.57Z" transform="translate(-287.18 -224)"/><path class="cls-9" d="M688.63,309.24l-.45.4c-.08.41-.17.83-.26,1.25C688.16,310.34,688.4,309.79,688.63,309.24Z" transform="translate(-287.18 -224)"/><path class="cls-3" d="M687,310.79,683.27,321c1.56-3.2,3.12-6.58,4.65-10.09.09-.42.18-.84.26-1.25C687.81,310,687.41,310.37,687,310.79Z" transform="translate(-287.18 -224)"/><path class="cls-9" d="M687,310.79,683.27,321c1.56-3.2,3.12-6.58,4.65-10.09.09-.42.18-.84.26-1.25C687.81,310,687.41,310.37,687,310.79Z" transform="translate(-287.18 -224)"/><path class="cls-3" d="M663.92,351.19c5.32-4.86,12.37-15.85,19.35-30.21L687,310.79C681,317.13,672.34,332.12,663.92,351.19Z" transform="translate(-287.18 -224)"/><path class="cls-16" d="M663.92,351.19c5.32-4.86,12.37-15.85,19.35-30.21L687,310.79C681,317.13,672.34,332.12,663.92,351.19Z" transform="translate(-287.18 -224)"/><path class="cls-9" d="M663.92,351.19c5.32-4.86,12.37-15.85,19.35-30.21L687,310.79C681,317.13,672.34,332.12,663.92,351.19Z" transform="translate(-287.18 -224)"/><path class="cls-3" d="M679.63,369.24c-6,5.13-15.5,21.11-24.71,41.95C661.61,405.08,671,389.27,679.63,369.24Z" transform="translate(-287.18 -224)"/><path class="cls-17" d="M679.63,369.24c-6,5.13-15.5,21.11-24.71,41.95C661.61,405.08,671,389.27,679.63,369.24Z" transform="translate(-287.18 -224)"/><path class="cls-9" d="M679.63,369.24c-6,5.13-15.5,21.11-24.71,41.95C661.61,405.08,671,389.27,679.63,369.24Z" transform="translate(-287.18 -224)"/><path class="cls-3" d="M710.3,398.85c-7.3,3.1-21.07,15.56-36,32.73C682.46,427.73,696.16,415.43,710.3,398.85Z" transform="translate(-287.18 -224)"/><path class="cls-18" d="M710.3,398.85c-7.3,3.1-21.07,15.56-36,32.73C682.46,427.73,696.16,415.43,710.3,398.85Z" transform="translate(-287.18 -224)"/><path class="cls-9" d="M710.3,398.85c-7.3,3.1-21.07,15.56-36,32.73C682.46,427.73,696.16,415.43,710.3,398.85Z" transform="translate(-287.18 -224)"/><path class="cls-9" d="M687,465.9a43.61,43.61,0,0,0-5,.8q-2.13,1.32-4.29,2.57Q682.27,467.68,687,465.9Z" transform="translate(-287.18 -224)"/><path class="cls-3" d="M677.75,469.27q2.16-1.25,4.29-2.57c-8.87,1.83-23.85,6.48-41.32,12.91C647.81,478.82,661.41,475,677.75,469.27Z" transform="translate(-287.18 -224)"/><path class="cls-19" d="M677.75,469.27q2.16-1.25,4.29-2.57c-8.87,1.83-23.85,6.48-41.32,12.91C647.81,478.82,661.41,475,677.75,469.27Z" transform="translate(-287.18 -224)"/><path class="cls-9" d="M677.75,469.27q2.16-1.25,4.29-2.57c-8.87,1.83-23.85,6.48-41.32,12.91C647.81,478.82,661.41,475,677.75,469.27Z" transform="translate(-287.18 -224)"/><path class="cls-3" d="M644,304.87c3.16-7.82,7-25.66,10.08-47.23C651.18,264.34,647.32,282.34,644,304.87Z" transform="translate(-287.18 -224)"/><path class="cls-20" d="M644,304.87c3.16-7.82,7-25.66,10.08-47.23C651.18,264.34,647.32,282.34,644,304.87Z" transform="translate(-287.18 -224)"/><path class="cls-9" d="M644,304.87c3.16-7.82,7-25.66,10.08-47.23C651.18,264.34,647.32,282.34,644,304.87Z" transform="translate(-287.18 -224)"/><path class="cls-3" d="M470.18,355.22c1.46,5,8.65,14.45,18.92,24.7C487.22,374.29,480.12,364.9,470.18,355.22Z" transform="translate(-287.18 -224)"/><path class="cls-21" d="M470.18,355.22c1.46,5,8.65,14.45,18.92,24.7C487.22,374.29,480.12,364.9,470.18,355.22Z" transform="translate(-287.18 -224)"/><path class="cls-9" d="M470.18,355.22c1.46,5,8.65,14.45,18.92,24.7C487.22,374.29,480.12,364.9,470.18,355.22Z" transform="translate(-287.18 -224)"/><path class="cls-22" d="M486,597.59c4.67-1.76,8.27-2.18,10.74-1.53s4.5,2.4,6.16,5.18c2.54,4.25,3.12,8.16,2,11.76s-4.06,7-8.78,10.62a121.14,121.14,0,0,0-12.54,10.93c-.49.49-.95.51-1.38.08L481,633.39a1.17,1.17,0,0,1-.09-1.44c.59-1.32.55-2.34-.15-3.08l-24.39-25.6a1.2,1.2,0,0,0-.94-.48,9.62,9.62,0,0,0-2.11.91,1.74,1.74,0,0,1-1.17.32,4.92,4.92,0,0,1-1.22-1,1.86,1.86,0,0,1-.71-1.4,2.67,2.67,0,0,1,.92-1.44,160.8,160.8,0,0,1,18.81-16c4.72-3.52,9-5.19,12.67-5.19s6.23,1.4,7.81,4a8,8,0,0,1,.47,7.23A20.75,20.75,0,0,1,486,597.59Zm-19-7,9.59,12,1.68-1.32a5.4,5.4,0,0,0,2-2.61,3.78,3.78,0,0,0-.61-3.07c-.68-1.13-1.61-2.51-2.81-4.13-1.66-2.27-3.06-3.51-4.19-3.7a5.07,5.07,0,0,0-3.83,1.36C468.12,589.67,467.75,590,467,590.55Zm11.68,14.64,13.64,17.11c1.65-1.32,2.64-2.37,2.92-3.2a3.69,3.69,0,0,0-.7-3.09q-1.12-1.86-4.18-6c-.42-.57-1.39-1.83-2.93-3.79a16.84,16.84,0,0,0-3.05-3.34,2.43,2.43,0,0,0-1.7-.22,5.92,5.92,0,0,0-2.36,1.24C479.68,604.4,479.35,604.66,478.7,605.19Z" transform="translate(-287.18 -224)"/><path class="cls-22" d="M490.93,573.25l-.72-1.28c-.31-.54.07-1.12,1.14-1.71,4.72-2.63,7.12-3.85,12-6.12a5.66,5.66,0,0,1,1.34-.49c.25,0,.49.23.73.76l16.95,37.27a1.55,1.55,0,0,0,1.61,1.11.94.94,0,0,1,1,.62c.27.62.41.92.67,1.53s-.08,1-1,1.43A119.81,119.81,0,0,0,514,611.79c-.59.33-1,.24-1.34-.29s-.49-.87-.82-1.45a1.59,1.59,0,0,1,.16-1.84,2.11,2.11,0,0,0,.48-.89,1.8,1.8,0,0,0-.31-.92l-17.48-31.82a1.4,1.4,0,0,0-1.67-.65A1.77,1.77,0,0,1,490.93,573.25Z" transform="translate(-287.18 -224)"/><path class="cls-22" d="M517,571l-.85.06a3.25,3.25,0,0,1-1.43-.1,2.12,2.12,0,0,1-.73-1.07c-.14-.33-.28-.6-.38-.8a1.36,1.36,0,0,1-.12-1.2,2.75,2.75,0,0,1,1.33-.85c4.79-1.94,7.21-2.83,12.1-4.43a2,2,0,0,1,1.16-.16c.18.09.34.39.5.89l8.78,27.5c.76,2.4,1.9,3.35,3.43,2.89a3.25,3.25,0,0,0,2.29-2.06l-7.35-26.09c-.19-.68-.79-1.08-1.81-1.2a1.47,1.47,0,0,1-1-.37,10,10,0,0,1-.78-2.14q-.24-.81,1.11-1.2c5.18-1.49,7.8-2.14,13.06-3.23a1.8,1.8,0,0,1,1.06,0c.14.09.26.38.37.88q3.33,16.46,6.67,32.91a1.39,1.39,0,0,0,1.15,1.14,1.8,1.8,0,0,1,1.39,1.53,6.53,6.53,0,0,1,.23,2c-.07.17-.38.31-1,.42-3.83.75-5.74,1.2-9.53,2.21a2,2,0,0,1-1.32,0c-.29-.13-.52-.53-.71-1.18-.08-.29-.12-.43-.19-.71q-.33-1.12-.39-1.26c-2.64,3.58-4.92,5.77-7.16,6.54a7.34,7.34,0,0,1-5.36,0c-1.67-.67-3.19-2.61-4.5-5.87Z" transform="translate(-287.18 -224)"/><path class="cls-22" d="M570,573.59c.42,4.78.62,7.17,1,11.94a6,6,0,0,0,1.36,3.62,3.27,3.27,0,0,0,2.74,1.16,5,5,0,0,0,3.92-2.07A8.53,8.53,0,0,0,580.5,583a3.79,3.79,0,0,1,.35-2.12,4.83,4.83,0,0,1,2.53-.38,5.3,5.3,0,0,1,2.39.33q.5.33.48,1.62a12.33,12.33,0,0,1-11.81,11.85,14.44,14.44,0,0,1-10.89-3.93c-3.35-2.92-5.73-7.61-6.86-14.25s-.48-12,2.24-15.93,6.91-6.23,12.32-6.61c4.64-.32,8.45,1.07,11.23,4s4,7.19,3.94,12.66c0,1.09,0,1.64,0,2.73A136.48,136.48,0,0,0,570,573.59Zm4.73-4c-.22-3.87-.32-5.81-.54-9.68-.1-1.84-1-2.71-2.84-2.58s-2.65,1.12-2.49,2.95c.33,3.87.5,5.8.83,9.66C571.66,569.77,572.67,569.7,574.69,569.59Z" transform="translate(-287.18 -224)"/><path class="cls-22" d="M616.23,569.67c4.34,2.1,7.06,4.37,8.27,6.57s1.35,4.89.51,8c-1.27,4.78-3.64,7.94-6.92,9.65s-7.6,2-13.23,1.18a118.36,118.36,0,0,0-15.6-1.41c-.64,0-1-.34-.93-.94l0-1.76a1.17,1.17,0,0,1,.92-1.05c1.27-.49,1.93-1.22,2-2.24q.86-17.66,1.7-35.32a1.22,1.22,0,0,0-.28-1,9.14,9.14,0,0,0-2-.9c-.55-.19-.87-.4-1-.62a4.82,4.82,0,0,1-.1-1.58,1.9,1.9,0,0,1,.49-1.48,2.34,2.34,0,0,1,1.56-.33,158.89,158.89,0,0,1,23.21,2.35c5.55.9,9.61,2.8,12,5.39s3.21,5.41,2.45,8.36a8.09,8.09,0,0,1-4.77,5.4A19.66,19.66,0,0,1,616.23,569.67Zm-7.63-18.46c-.8,6.1-1.2,9.15-2,15.25l2,.28a5,5,0,0,0,3.12-.39,3.81,3.81,0,0,0,1.73-2.58q.51-1.92,1-4.89.71-4.17-.22-5.58a4.69,4.69,0,0,0-3.46-1.79Zm-2.44,18.56c-1.15,8.68-1.72,13-2.86,21.7a8.22,8.22,0,0,0,4.13-.14,3.8,3.8,0,0,0,1.68-2.67q.54-2.1,1.41-7.19.18-1,.69-4.74a17.16,17.16,0,0,0,.31-4.51,2.49,2.49,0,0,0-1-1.37,5.45,5.45,0,0,0-2.41-.81Z" transform="translate(-287.18 -224)"/><path class="cls-22" d="M634.56,563.62l.54-1.86c.18-.62.8-.77,1.86-.46,5,1.51,7.54,2.36,12.49,4.24.88.33,1.2.8,1,1.4l-12.23,31.41a2.66,2.66,0,0,0-.24.88c0,.15.15.34.41.57a1.7,1.7,0,0,1,.42,2.12,6.34,6.34,0,0,1-.87,1.74c-.19.15-.55.12-1.09-.09A118.19,118.19,0,0,0,625,599.5a.69.69,0,0,1-.46-.52,6.23,6.23,0,0,1,.33-1.59q.45-1.53,1.35-1.53c.74,0,1.19-.28,1.36-.82l8.53-27.94a1.9,1.9,0,0,0-1.06-2.46A.8.8,0,0,1,634.56,563.62Zm14.64-7c3.07,1.11,4.32,2.41,3.78,3.79-.43,1.1-1.79,1.62-4.06,1.65a22.72,22.72,0,0,1-7.19-1.21c-3.29-1.07-4.71-2.31-4.25-3.87.36-1.24,1.83-1.84,4.41-1.75A24.31,24.31,0,0,1,649.2,556.57Z" transform="translate(-287.18 -224)"/><path class="cls-22" d="M665.89,581.48a14,14,0,0,0,2.18-1.63c2.11-1.76,3.79-2.65,5-2.72a6.05,6.05,0,0,1,3.43.83,4.42,4.42,0,0,1,2.42,3.39,6.63,6.63,0,0,1-1.11,4.23c-1.9,3.08-4,3.87-6.39,2.48a3.6,3.6,0,0,1-1.88-3.14,1.81,1.81,0,0,0-.72-1.57c-1.06-.59-2,0-3,1.69l-11.08,20.63a1.75,1.75,0,0,0,.26,2,1.67,1.67,0,0,1,.25,2l-.64,1.15c-.23.41-.42.64-.59.69s-.5-.06-1-.33A119.45,119.45,0,0,0,642,605.72c-.77-.34-1-.84-.73-1.5l.63-1.48a1.07,1.07,0,0,1,1-.77,1.66,1.66,0,0,0,1.66-.94q6-13.49,12-27a1.48,1.48,0,0,0-.32-1.71,3.54,3.54,0,0,1-.85-1.12,4,4,0,0,1,.44-1.45c.28-.64.59-1,.92-1a3,3,0,0,1,1.46.35c4.12,1.81,6.16,2.78,10.18,4.85a1.54,1.54,0,0,1,.83.78,2.49,2.49,0,0,1-.43,1.45C667.56,578.28,667,579.35,665.89,581.48Z" transform="translate(-287.18 -224)"/><path class="cls-22" d="M698.82,597.2l3.25-4c.54-.66.43-1.37-.36-2.07a1.9,1.9,0,0,1-.69-.9,1.44,1.44,0,0,1,.43-1l.7-.9c.28-.35.53-.51.75-.47a3.53,3.53,0,0,1,1.17.73c4.45,3.6,6.63,5.5,10.87,9.49a3.07,3.07,0,0,1,1,1.27c0,.29-.16.66-.59,1.11l-28.19,29.39a1.81,1.81,0,0,0,0,2.37.91.91,0,0,1,0,1.24l-1,1.06a.87.87,0,0,1-1.39,0c-3.44-3.37-5.21-5-8.85-8-.3-.25-.44-.44-.42-.59a5,5,0,0,1,.91-1.29c.11-.13.28-.33.52-.59-3.18-.06-5.56-.66-7.24-1.91-5.68-4.22-5.3-11.31,1.47-22,4.81-7.59,8.91-12,12.41-13a11,11,0,0,1,10,1.9A15.65,15.65,0,0,1,698.82,597.2Zm-2.1,2.56a7.92,7.92,0,0,0-1.93-2.61,2.85,2.85,0,0,0-2.32-.65,2.92,2.92,0,0,0-1.93,1.13l-14.67,19.25a2.64,2.64,0,0,0-.58,1.86,2.19,2.19,0,0,0,.86,1.62,3.29,3.29,0,0,0,1.92.65,1.88,1.88,0,0,0,1.58-.39Z" transform="translate(-287.18 -224)"/><text x="-287.18" y="-224"/></svg>